# xmcd
#
# Track frame offsets:
#	150
#	14311
#	29245
#	49576
#	72355
#	89093
#	102606
#	127446
#
# Disc length: 1944 seconds
#
# Revision: 1
# Processed by: cddbd v1.5.2PL0 Copyright (c) Steve Scherf et al.
# Submitted via: audiograbber 1.83.01
#
DISCID=7c079608
DTITLE=CREW 7 - GET THE PARTY STARTED
DYEAR=2009
DGENRE=Club-House
TTITLE0=GET THE PARTY STARTED (Original Radio) 
TTITLE1=GET THE PARTY STARTED (Club Radio) 
TTITLE2=GET THE PARTY STARTED (Original Mix)
TTITLE3=GET THE PARTY STARTED (Club Mix)
TTITLE4=GET THE PARTY STARTED (Rene Rodrigezz Radio Cut) 
TTITLE5=GET THE PARTY STARTED (Brisby and Jingles Radio) 
TTITLE6=GET THE PARTY STARTED (Rene Rodrigezz Remix)
TTITLE7=GET THE PARTY STARTED (Brisby and Jingles Remix)
EXTD=
EXTT0=
EXTT1=
EXTT2=
EXTT3=
EXTT4=
EXTT5=
EXTT6=
EXTT7=
PLAYORDER=
